<mxfile host="app.diagrams.net" modified="2021-01-14T16:34:24.887Z" agent="5.0 (Windows NT 10.0; Win64; x64) AppleWebKit/537.36 (KHTML, like Gecko) Chrome/87.0.4280.141 Safari/537.36" etag="Dw8X_m-0b_6_YVIn9P-3" version="14.2.3" type="github">
  <diagram id="R2lEEEUBdFMjLlhIrx00" name="Page-1">
    <mxGraphModel dx="1042" dy="547" grid="1" gridSize="10" guides="1" tooltips="1" connect="1" arrows="1" fold="1" page="1" pageScale="1" pageWidth="850" pageHeight="1100" math="0" shadow="0" extFonts="Permanent Marker^https://fonts.googleapis.com/css?family=Permanent+Marker">
      <root>
        <mxCell id="0" />
        <mxCell id="1" parent="0" />
        <mxCell id="KJZ9F4BGSraTSlM0UNvD-101" style="edgeStyle=orthogonalEdgeStyle;rounded=0;orthogonalLoop=1;jettySize=auto;html=1;exitX=0.5;exitY=0;exitDx=0;exitDy=0;entryX=0.616;entryY=1.007;entryDx=0;entryDy=0;entryPerimeter=0;" edge="1" parent="1" source="KJZ9F4BGSraTSlM0UNvD-100" target="KJZ9F4BGSraTSlM0UNvD-39">
          <mxGeometry relative="1" as="geometry">
            <Array as="points">
              <mxPoint x="85" y="510" />
              <mxPoint x="130" y="510" />
              <mxPoint x="130" y="425" />
            </Array>
          </mxGeometry>
        </mxCell>
        <mxCell id="KJZ9F4BGSraTSlM0UNvD-5" style="edgeStyle=orthogonalEdgeStyle;rounded=0;orthogonalLoop=1;jettySize=auto;html=1;exitX=0;exitY=0.5;exitDx=0;exitDy=0;" edge="1" parent="1" source="KJZ9F4BGSraTSlM0UNvD-4" target="KJZ9F4BGSraTSlM0UNvD-6">
          <mxGeometry relative="1" as="geometry">
            <mxPoint x="485" y="640.3333333333334" as="targetPoint" />
          </mxGeometry>
        </mxCell>
        <mxCell id="KJZ9F4BGSraTSlM0UNvD-7" style="edgeStyle=orthogonalEdgeStyle;rounded=0;orthogonalLoop=1;jettySize=auto;html=1;exitX=0;exitY=1;exitDx=0;exitDy=0;" edge="1" parent="1" source="KJZ9F4BGSraTSlM0UNvD-4" target="KJZ9F4BGSraTSlM0UNvD-8">
          <mxGeometry relative="1" as="geometry">
            <mxPoint x="505" y="710" as="targetPoint" />
          </mxGeometry>
        </mxCell>
        <mxCell id="KJZ9F4BGSraTSlM0UNvD-9" style="edgeStyle=orthogonalEdgeStyle;rounded=0;orthogonalLoop=1;jettySize=auto;html=1;exitX=0.5;exitY=1;exitDx=0;exitDy=0;" edge="1" parent="1" source="KJZ9F4BGSraTSlM0UNvD-4" target="KJZ9F4BGSraTSlM0UNvD-10">
          <mxGeometry relative="1" as="geometry">
            <mxPoint x="605.3333333333335" y="710" as="targetPoint" />
          </mxGeometry>
        </mxCell>
        <mxCell id="KJZ9F4BGSraTSlM0UNvD-11" style="edgeStyle=orthogonalEdgeStyle;rounded=0;orthogonalLoop=1;jettySize=auto;html=1;exitX=1;exitY=1;exitDx=0;exitDy=0;" edge="1" parent="1" source="KJZ9F4BGSraTSlM0UNvD-4" target="KJZ9F4BGSraTSlM0UNvD-12">
          <mxGeometry relative="1" as="geometry">
            <mxPoint x="715" y="710" as="targetPoint" />
          </mxGeometry>
        </mxCell>
        <mxCell id="KJZ9F4BGSraTSlM0UNvD-13" style="edgeStyle=orthogonalEdgeStyle;rounded=0;orthogonalLoop=1;jettySize=auto;html=1;exitX=1;exitY=0.5;exitDx=0;exitDy=0;" edge="1" parent="1" source="KJZ9F4BGSraTSlM0UNvD-4" target="KJZ9F4BGSraTSlM0UNvD-14">
          <mxGeometry relative="1" as="geometry">
            <mxPoint x="725" y="640.3333333333334" as="targetPoint" />
          </mxGeometry>
        </mxCell>
        <mxCell id="KJZ9F4BGSraTSlM0UNvD-63" style="edgeStyle=orthogonalEdgeStyle;rounded=0;orthogonalLoop=1;jettySize=auto;html=1;exitX=0.5;exitY=0;exitDx=0;exitDy=0;" edge="1" parent="1" source="KJZ9F4BGSraTSlM0UNvD-4" target="KJZ9F4BGSraTSlM0UNvD-64">
          <mxGeometry relative="1" as="geometry">
            <mxPoint x="409.9999999999998" y="480" as="targetPoint" />
          </mxGeometry>
        </mxCell>
        <mxCell id="KJZ9F4BGSraTSlM0UNvD-68" style="edgeStyle=orthogonalEdgeStyle;rounded=0;orthogonalLoop=1;jettySize=auto;html=1;exitX=1;exitY=0;exitDx=0;exitDy=0;" edge="1" parent="1" source="KJZ9F4BGSraTSlM0UNvD-4" target="KJZ9F4BGSraTSlM0UNvD-69">
          <mxGeometry relative="1" as="geometry">
            <mxPoint x="690" y="580" as="targetPoint" />
          </mxGeometry>
        </mxCell>
        <mxCell id="KJZ9F4BGSraTSlM0UNvD-76" style="edgeStyle=orthogonalEdgeStyle;rounded=0;orthogonalLoop=1;jettySize=auto;html=1;exitX=0;exitY=0;exitDx=0;exitDy=0;" edge="1" parent="1" source="KJZ9F4BGSraTSlM0UNvD-4" target="KJZ9F4BGSraTSlM0UNvD-77">
          <mxGeometry relative="1" as="geometry">
            <mxPoint x="320" y="550" as="targetPoint" />
            <Array as="points">
              <mxPoint x="545" y="597" />
            </Array>
          </mxGeometry>
        </mxCell>
        <mxCell id="KJZ9F4BGSraTSlM0UNvD-81" style="edgeStyle=orthogonalEdgeStyle;rounded=0;orthogonalLoop=1;jettySize=auto;html=1;exitX=0;exitY=0.75;exitDx=0;exitDy=0;" edge="1" parent="1" source="KJZ9F4BGSraTSlM0UNvD-4" target="KJZ9F4BGSraTSlM0UNvD-82">
          <mxGeometry relative="1" as="geometry">
            <mxPoint x="350" y="730" as="targetPoint" />
            <Array as="points">
              <mxPoint x="545" y="670" />
              <mxPoint x="350" y="670" />
            </Array>
          </mxGeometry>
        </mxCell>
        <mxCell id="KJZ9F4BGSraTSlM0UNvD-4" value="&lt;font style=&quot;font-size: 18px&quot;&gt;users&lt;/font&gt;" style="rounded=0;whiteSpace=wrap;html=1;" vertex="1" parent="1">
          <mxGeometry x="545" y="610" width="120" height="60" as="geometry" />
        </mxCell>
        <mxCell id="KJZ9F4BGSraTSlM0UNvD-6" value="user_id" style="ellipse;whiteSpace=wrap;html=1;" vertex="1" parent="1">
          <mxGeometry x="415" y="615" width="70" height="50" as="geometry" />
        </mxCell>
        <mxCell id="KJZ9F4BGSraTSlM0UNvD-8" value="user_name" style="ellipse;whiteSpace=wrap;html=1;" vertex="1" parent="1">
          <mxGeometry x="455" y="710" width="90" height="50" as="geometry" />
        </mxCell>
        <mxCell id="KJZ9F4BGSraTSlM0UNvD-10" value="user_email" style="ellipse;whiteSpace=wrap;html=1;" vertex="1" parent="1">
          <mxGeometry x="565" y="710" width="80" height="50" as="geometry" />
        </mxCell>
        <mxCell id="KJZ9F4BGSraTSlM0UNvD-12" value="auth0_id" style="ellipse;whiteSpace=wrap;html=1;" vertex="1" parent="1">
          <mxGeometry x="675" y="710" width="80" height="50" as="geometry" />
        </mxCell>
        <mxCell id="KJZ9F4BGSraTSlM0UNvD-14" value="user_picture" style="ellipse;whiteSpace=wrap;html=1;" vertex="1" parent="1">
          <mxGeometry x="715" y="615" width="90" height="50" as="geometry" />
        </mxCell>
        <mxCell id="KJZ9F4BGSraTSlM0UNvD-16" style="edgeStyle=orthogonalEdgeStyle;rounded=0;orthogonalLoop=1;jettySize=auto;html=1;exitX=0;exitY=0.5;exitDx=0;exitDy=0;" edge="1" parent="1" source="KJZ9F4BGSraTSlM0UNvD-15" target="KJZ9F4BGSraTSlM0UNvD-17">
          <mxGeometry relative="1" as="geometry">
            <mxPoint x="310" y="210" as="targetPoint" />
          </mxGeometry>
        </mxCell>
        <mxCell id="KJZ9F4BGSraTSlM0UNvD-18" style="edgeStyle=orthogonalEdgeStyle;rounded=0;orthogonalLoop=1;jettySize=auto;html=1;exitX=1;exitY=0.5;exitDx=0;exitDy=0;" edge="1" parent="1" source="KJZ9F4BGSraTSlM0UNvD-15" target="KJZ9F4BGSraTSlM0UNvD-19">
          <mxGeometry relative="1" as="geometry">
            <mxPoint x="530" y="210" as="targetPoint" />
          </mxGeometry>
        </mxCell>
        <mxCell id="KJZ9F4BGSraTSlM0UNvD-15" value="&lt;font style=&quot;font-size: 18px&quot;&gt;locations&lt;/font&gt;" style="rounded=0;whiteSpace=wrap;html=1;" vertex="1" parent="1">
          <mxGeometry x="350" y="180" width="120" height="60" as="geometry" />
        </mxCell>
        <mxCell id="KJZ9F4BGSraTSlM0UNvD-17" value="city" style="ellipse;whiteSpace=wrap;html=1;" vertex="1" parent="1">
          <mxGeometry x="230" y="190" width="70" height="40" as="geometry" />
        </mxCell>
        <mxCell id="KJZ9F4BGSraTSlM0UNvD-19" value="location_id" style="ellipse;whiteSpace=wrap;html=1;" vertex="1" parent="1">
          <mxGeometry x="510" y="190" width="90" height="40" as="geometry" />
        </mxCell>
        <mxCell id="KJZ9F4BGSraTSlM0UNvD-21" style="edgeStyle=orthogonalEdgeStyle;rounded=0;orthogonalLoop=1;jettySize=auto;html=1;exitX=0.5;exitY=0;exitDx=0;exitDy=0;" edge="1" parent="1" source="KJZ9F4BGSraTSlM0UNvD-20" target="KJZ9F4BGSraTSlM0UNvD-22">
          <mxGeometry relative="1" as="geometry">
            <mxPoint x="710" y="340" as="targetPoint" />
          </mxGeometry>
        </mxCell>
        <mxCell id="KJZ9F4BGSraTSlM0UNvD-23" style="edgeStyle=orthogonalEdgeStyle;rounded=0;orthogonalLoop=1;jettySize=auto;html=1;exitX=0.25;exitY=0;exitDx=0;exitDy=0;" edge="1" parent="1" source="KJZ9F4BGSraTSlM0UNvD-20" target="KJZ9F4BGSraTSlM0UNvD-24">
          <mxGeometry relative="1" as="geometry">
            <mxPoint x="630" y="350" as="targetPoint" />
          </mxGeometry>
        </mxCell>
        <mxCell id="KJZ9F4BGSraTSlM0UNvD-25" style="edgeStyle=orthogonalEdgeStyle;rounded=0;orthogonalLoop=1;jettySize=auto;html=1;exitX=0;exitY=0.25;exitDx=0;exitDy=0;" edge="1" parent="1" source="KJZ9F4BGSraTSlM0UNvD-20" target="KJZ9F4BGSraTSlM0UNvD-26">
          <mxGeometry relative="1" as="geometry">
            <mxPoint x="600" y="400" as="targetPoint" />
            <Array as="points">
              <mxPoint x="635" y="370" />
              <mxPoint x="615" y="370" />
              <mxPoint x="615" y="405" />
            </Array>
          </mxGeometry>
        </mxCell>
        <mxCell id="KJZ9F4BGSraTSlM0UNvD-27" style="edgeStyle=orthogonalEdgeStyle;rounded=0;orthogonalLoop=1;jettySize=auto;html=1;exitX=0;exitY=0.75;exitDx=0;exitDy=0;" edge="1" parent="1" source="KJZ9F4BGSraTSlM0UNvD-20" target="KJZ9F4BGSraTSlM0UNvD-28">
          <mxGeometry relative="1" as="geometry">
            <mxPoint x="610" y="450" as="targetPoint" />
          </mxGeometry>
        </mxCell>
        <mxCell id="KJZ9F4BGSraTSlM0UNvD-30" style="edgeStyle=orthogonalEdgeStyle;rounded=0;orthogonalLoop=1;jettySize=auto;html=1;exitX=0.25;exitY=1;exitDx=0;exitDy=0;" edge="1" parent="1" source="KJZ9F4BGSraTSlM0UNvD-20" target="KJZ9F4BGSraTSlM0UNvD-31">
          <mxGeometry relative="1" as="geometry">
            <mxPoint x="690" y="450" as="targetPoint" />
          </mxGeometry>
        </mxCell>
        <mxCell id="KJZ9F4BGSraTSlM0UNvD-32" style="edgeStyle=orthogonalEdgeStyle;rounded=0;orthogonalLoop=1;jettySize=auto;html=1;exitX=0.75;exitY=1;exitDx=0;exitDy=0;" edge="1" parent="1" source="KJZ9F4BGSraTSlM0UNvD-20" target="KJZ9F4BGSraTSlM0UNvD-33">
          <mxGeometry relative="1" as="geometry">
            <mxPoint x="760" y="470" as="targetPoint" />
          </mxGeometry>
        </mxCell>
        <mxCell id="KJZ9F4BGSraTSlM0UNvD-34" style="edgeStyle=orthogonalEdgeStyle;rounded=0;orthogonalLoop=1;jettySize=auto;html=1;exitX=0.75;exitY=0;exitDx=0;exitDy=0;" edge="1" parent="1" source="KJZ9F4BGSraTSlM0UNvD-20" target="KJZ9F4BGSraTSlM0UNvD-35">
          <mxGeometry relative="1" as="geometry">
            <mxPoint x="800" y="330" as="targetPoint" />
          </mxGeometry>
        </mxCell>
        <mxCell id="KJZ9F4BGSraTSlM0UNvD-37" style="edgeStyle=orthogonalEdgeStyle;rounded=0;orthogonalLoop=1;jettySize=auto;html=1;exitX=1;exitY=0.5;exitDx=0;exitDy=0;" edge="1" parent="1" source="KJZ9F4BGSraTSlM0UNvD-20" target="KJZ9F4BGSraTSlM0UNvD-38">
          <mxGeometry relative="1" as="geometry">
            <mxPoint x="770" y="400" as="targetPoint" />
          </mxGeometry>
        </mxCell>
        <mxCell id="KJZ9F4BGSraTSlM0UNvD-87" style="edgeStyle=orthogonalEdgeStyle;rounded=0;orthogonalLoop=1;jettySize=auto;html=1;exitX=0;exitY=0.5;exitDx=0;exitDy=0;" edge="1" parent="1" source="KJZ9F4BGSraTSlM0UNvD-20" target="KJZ9F4BGSraTSlM0UNvD-88">
          <mxGeometry relative="1" as="geometry">
            <mxPoint x="470" y="390" as="targetPoint" />
          </mxGeometry>
        </mxCell>
        <mxCell id="KJZ9F4BGSraTSlM0UNvD-93" style="edgeStyle=orthogonalEdgeStyle;rounded=0;orthogonalLoop=1;jettySize=auto;html=1;exitX=0.25;exitY=0;exitDx=0;exitDy=0;" edge="1" parent="1" source="KJZ9F4BGSraTSlM0UNvD-20" target="KJZ9F4BGSraTSlM0UNvD-94">
          <mxGeometry relative="1" as="geometry">
            <mxPoint x="660" y="270" as="targetPoint" />
          </mxGeometry>
        </mxCell>
        <mxCell id="KJZ9F4BGSraTSlM0UNvD-20" value="&lt;font style=&quot;font-size: 18px&quot;&gt;posts&lt;/font&gt;" style="rounded=0;whiteSpace=wrap;html=1;" vertex="1" parent="1">
          <mxGeometry x="635" y="370" width="120" height="60" as="geometry" />
        </mxCell>
        <mxCell id="KJZ9F4BGSraTSlM0UNvD-22" value="post_id" style="ellipse;whiteSpace=wrap;html=1;" vertex="1" parent="1">
          <mxGeometry x="670" y="300" width="80" height="40" as="geometry" />
        </mxCell>
        <mxCell id="KJZ9F4BGSraTSlM0UNvD-24" value="post_location" style="ellipse;whiteSpace=wrap;html=1;" vertex="1" parent="1">
          <mxGeometry x="540" y="320" width="85" height="50" as="geometry" />
        </mxCell>
        <mxCell id="KJZ9F4BGSraTSlM0UNvD-26" value="post_content" style="ellipse;whiteSpace=wrap;html=1;" vertex="1" parent="1">
          <mxGeometry x="515" y="380" width="80" height="50" as="geometry" />
        </mxCell>
        <mxCell id="KJZ9F4BGSraTSlM0UNvD-28" value="post_author" style="ellipse;whiteSpace=wrap;html=1;" vertex="1" parent="1">
          <mxGeometry x="570" y="450" width="80" height="50" as="geometry" />
        </mxCell>
        <mxCell id="KJZ9F4BGSraTSlM0UNvD-31" value="post_title" style="ellipse;whiteSpace=wrap;html=1;" vertex="1" parent="1">
          <mxGeometry x="660" y="470" width="70" height="40" as="geometry" />
        </mxCell>
        <mxCell id="KJZ9F4BGSraTSlM0UNvD-33" value="post_timestamp" style="ellipse;whiteSpace=wrap;html=1;" vertex="1" parent="1">
          <mxGeometry x="750" y="470" width="90" height="50" as="geometry" />
        </mxCell>
        <mxCell id="KJZ9F4BGSraTSlM0UNvD-35" value="post_altered" style="ellipse;whiteSpace=wrap;html=1;" vertex="1" parent="1">
          <mxGeometry x="760" y="320" width="80" height="40" as="geometry" />
        </mxCell>
        <mxCell id="KJZ9F4BGSraTSlM0UNvD-38" value="post_image" style="ellipse;whiteSpace=wrap;html=1;" vertex="1" parent="1">
          <mxGeometry x="765" y="385" width="75" height="45" as="geometry" />
        </mxCell>
        <mxCell id="KJZ9F4BGSraTSlM0UNvD-40" style="edgeStyle=orthogonalEdgeStyle;rounded=0;orthogonalLoop=1;jettySize=auto;html=1;exitX=0.5;exitY=0;exitDx=0;exitDy=0;" edge="1" parent="1" source="KJZ9F4BGSraTSlM0UNvD-39" target="KJZ9F4BGSraTSlM0UNvD-41">
          <mxGeometry relative="1" as="geometry">
            <mxPoint x="100" y="325" as="targetPoint" />
          </mxGeometry>
        </mxCell>
        <mxCell id="KJZ9F4BGSraTSlM0UNvD-42" style="edgeStyle=orthogonalEdgeStyle;rounded=0;orthogonalLoop=1;jettySize=auto;html=1;exitX=0.5;exitY=1;exitDx=0;exitDy=0;" edge="1" parent="1" source="KJZ9F4BGSraTSlM0UNvD-39" target="KJZ9F4BGSraTSlM0UNvD-43">
          <mxGeometry relative="1" as="geometry">
            <mxPoint x="100" y="465" as="targetPoint" />
          </mxGeometry>
        </mxCell>
        <mxCell id="KJZ9F4BGSraTSlM0UNvD-45" style="edgeStyle=orthogonalEdgeStyle;rounded=0;orthogonalLoop=1;jettySize=auto;html=1;exitX=0.75;exitY=0;exitDx=0;exitDy=0;" edge="1" parent="1" source="KJZ9F4BGSraTSlM0UNvD-39" target="KJZ9F4BGSraTSlM0UNvD-46">
          <mxGeometry relative="1" as="geometry">
            <mxPoint x="170" y="345" as="targetPoint" />
          </mxGeometry>
        </mxCell>
        <mxCell id="KJZ9F4BGSraTSlM0UNvD-47" style="edgeStyle=orthogonalEdgeStyle;rounded=0;orthogonalLoop=1;jettySize=auto;html=1;exitX=1;exitY=0.5;exitDx=0;exitDy=0;" edge="1" parent="1" source="KJZ9F4BGSraTSlM0UNvD-39" target="KJZ9F4BGSraTSlM0UNvD-49">
          <mxGeometry relative="1" as="geometry">
            <mxPoint x="200" y="395" as="targetPoint" />
          </mxGeometry>
        </mxCell>
        <mxCell id="KJZ9F4BGSraTSlM0UNvD-50" style="edgeStyle=orthogonalEdgeStyle;rounded=0;orthogonalLoop=1;jettySize=auto;html=1;exitX=1;exitY=1;exitDx=0;exitDy=0;" edge="1" parent="1" source="KJZ9F4BGSraTSlM0UNvD-39" target="KJZ9F4BGSraTSlM0UNvD-51">
          <mxGeometry relative="1" as="geometry">
            <mxPoint x="190" y="465" as="targetPoint" />
          </mxGeometry>
        </mxCell>
        <mxCell id="KJZ9F4BGSraTSlM0UNvD-39" value="&lt;font style=&quot;font-size: 18px&quot;&gt;comments&lt;/font&gt;" style="rounded=0;whiteSpace=wrap;html=1;" vertex="1" parent="1">
          <mxGeometry x="40" y="365" width="120" height="60" as="geometry" />
        </mxCell>
        <mxCell id="KJZ9F4BGSraTSlM0UNvD-41" value="comment_id" style="ellipse;whiteSpace=wrap;html=1;" vertex="1" parent="1">
          <mxGeometry x="55" y="285" width="90" height="40" as="geometry" />
        </mxCell>
        <mxCell id="KJZ9F4BGSraTSlM0UNvD-43" value="comment_author" style="ellipse;whiteSpace=wrap;html=1;" vertex="1" parent="1">
          <mxGeometry x="20" y="457.5" width="100" height="45" as="geometry" />
        </mxCell>
        <mxCell id="KJZ9F4BGSraTSlM0UNvD-46" value="comment_content" style="ellipse;whiteSpace=wrap;html=1;" vertex="1" parent="1">
          <mxGeometry x="170" y="315" width="110" height="50" as="geometry" />
        </mxCell>
        <mxCell id="KJZ9F4BGSraTSlM0UNvD-49" value="comment_post" style="ellipse;whiteSpace=wrap;html=1;" vertex="1" parent="1">
          <mxGeometry x="195" y="370" width="105" height="55" as="geometry" />
        </mxCell>
        <mxCell id="KJZ9F4BGSraTSlM0UNvD-51" value="comment_timestamp" style="ellipse;whiteSpace=wrap;html=1;" vertex="1" parent="1">
          <mxGeometry x="182.5" y="465" width="130" height="50" as="geometry" />
        </mxCell>
        <mxCell id="KJZ9F4BGSraTSlM0UNvD-53" style="edgeStyle=orthogonalEdgeStyle;rounded=0;orthogonalLoop=1;jettySize=auto;html=1;exitX=0.25;exitY=0;exitDx=0;exitDy=0;" edge="1" parent="1" source="KJZ9F4BGSraTSlM0UNvD-52" target="KJZ9F4BGSraTSlM0UNvD-54">
          <mxGeometry relative="1" as="geometry">
            <mxPoint x="70" y="670" as="targetPoint" />
          </mxGeometry>
        </mxCell>
        <mxCell id="KJZ9F4BGSraTSlM0UNvD-55" style="edgeStyle=orthogonalEdgeStyle;rounded=0;orthogonalLoop=1;jettySize=auto;html=1;exitX=0.75;exitY=0;exitDx=0;exitDy=0;" edge="1" parent="1" source="KJZ9F4BGSraTSlM0UNvD-52" target="KJZ9F4BGSraTSlM0UNvD-56">
          <mxGeometry relative="1" as="geometry">
            <mxPoint x="150" y="660" as="targetPoint" />
          </mxGeometry>
        </mxCell>
        <mxCell id="KJZ9F4BGSraTSlM0UNvD-57" style="edgeStyle=orthogonalEdgeStyle;rounded=0;orthogonalLoop=1;jettySize=auto;html=1;exitX=1;exitY=0.5;exitDx=0;exitDy=0;" edge="1" parent="1" source="KJZ9F4BGSraTSlM0UNvD-52" target="KJZ9F4BGSraTSlM0UNvD-58">
          <mxGeometry relative="1" as="geometry">
            <mxPoint x="200" y="735" as="targetPoint" />
          </mxGeometry>
        </mxCell>
        <mxCell id="KJZ9F4BGSraTSlM0UNvD-59" style="edgeStyle=orthogonalEdgeStyle;rounded=0;orthogonalLoop=1;jettySize=auto;html=1;exitX=0.5;exitY=0;exitDx=0;exitDy=0;" edge="1" parent="1" source="KJZ9F4BGSraTSlM0UNvD-52" target="KJZ9F4BGSraTSlM0UNvD-61">
          <mxGeometry relative="1" as="geometry">
            <mxPoint x="170" y="640" as="targetPoint" />
          </mxGeometry>
        </mxCell>
        <mxCell id="KJZ9F4BGSraTSlM0UNvD-99" style="edgeStyle=orthogonalEdgeStyle;rounded=0;orthogonalLoop=1;jettySize=auto;html=1;exitX=0.75;exitY=0;exitDx=0;exitDy=0;" edge="1" parent="1" source="KJZ9F4BGSraTSlM0UNvD-52" target="KJZ9F4BGSraTSlM0UNvD-100">
          <mxGeometry relative="1" as="geometry">
            <mxPoint x="100" y="580" as="targetPoint" />
          </mxGeometry>
        </mxCell>
        <mxCell id="KJZ9F4BGSraTSlM0UNvD-52" value="&lt;font style=&quot;font-size: 18px&quot;&gt;upvoted&lt;/font&gt;" style="rounded=0;whiteSpace=wrap;html=1;" vertex="1" parent="1">
          <mxGeometry x="40" y="705" width="120" height="60" as="geometry" />
        </mxCell>
        <mxCell id="KJZ9F4BGSraTSlM0UNvD-54" value="upvoted_id" style="ellipse;whiteSpace=wrap;html=1;" vertex="1" parent="1">
          <mxGeometry x="20" y="610" width="90" height="60" as="geometry" />
        </mxCell>
        <mxCell id="KJZ9F4BGSraTSlM0UNvD-56" value="upvoted_post" style="ellipse;whiteSpace=wrap;html=1;" vertex="1" parent="1">
          <mxGeometry x="220" y="680" width="100" height="60" as="geometry" />
        </mxCell>
        <mxCell id="KJZ9F4BGSraTSlM0UNvD-58" value="upvoted_user_id" style="ellipse;whiteSpace=wrap;html=1;" vertex="1" parent="1">
          <mxGeometry x="150" y="780" width="110" height="50" as="geometry" />
        </mxCell>
        <mxCell id="KJZ9F4BGSraTSlM0UNvD-61" value="upvoted_comment" style="ellipse;whiteSpace=wrap;html=1;" vertex="1" parent="1">
          <mxGeometry x="165" y="600" width="120" height="50" as="geometry" />
        </mxCell>
        <mxCell id="KJZ9F4BGSraTSlM0UNvD-65" style="edgeStyle=orthogonalEdgeStyle;rounded=0;orthogonalLoop=1;jettySize=auto;html=1;exitX=0.5;exitY=0;exitDx=0;exitDy=0;entryX=0.5;entryY=1;entryDx=0;entryDy=0;" edge="1" parent="1" source="KJZ9F4BGSraTSlM0UNvD-64" target="KJZ9F4BGSraTSlM0UNvD-15">
          <mxGeometry relative="1" as="geometry" />
        </mxCell>
        <mxCell id="KJZ9F4BGSraTSlM0UNvD-64" value="have" style="rhombus;whiteSpace=wrap;html=1;" vertex="1" parent="1">
          <mxGeometry x="380" y="450" width="60" height="60" as="geometry" />
        </mxCell>
        <mxCell id="KJZ9F4BGSraTSlM0UNvD-66" value="N" style="text;html=1;align=center;verticalAlign=middle;resizable=0;points=[];autosize=1;" vertex="1" parent="1">
          <mxGeometry x="605" y="590" width="20" height="20" as="geometry" />
        </mxCell>
        <mxCell id="KJZ9F4BGSraTSlM0UNvD-67" value="N" style="text;html=1;align=center;verticalAlign=middle;resizable=0;points=[];autosize=1;" vertex="1" parent="1">
          <mxGeometry x="410" y="240" width="20" height="20" as="geometry" />
        </mxCell>
        <mxCell id="KJZ9F4BGSraTSlM0UNvD-71" style="edgeStyle=orthogonalEdgeStyle;rounded=0;orthogonalLoop=1;jettySize=auto;html=1;exitX=1;exitY=0;exitDx=0;exitDy=0;entryX=0.875;entryY=1;entryDx=0;entryDy=0;entryPerimeter=0;" edge="1" parent="1" source="KJZ9F4BGSraTSlM0UNvD-69" target="KJZ9F4BGSraTSlM0UNvD-20">
          <mxGeometry relative="1" as="geometry">
            <Array as="points">
              <mxPoint x="740" y="577" />
            </Array>
          </mxGeometry>
        </mxCell>
        <mxCell id="KJZ9F4BGSraTSlM0UNvD-69" value="post" style="rhombus;whiteSpace=wrap;html=1;" vertex="1" parent="1">
          <mxGeometry x="690" y="565" width="40" height="50" as="geometry" />
        </mxCell>
        <mxCell id="KJZ9F4BGSraTSlM0UNvD-70" value="1" style="text;html=1;align=center;verticalAlign=middle;resizable=0;points=[];autosize=1;" vertex="1" parent="1">
          <mxGeometry x="650" y="590" width="20" height="20" as="geometry" />
        </mxCell>
        <mxCell id="KJZ9F4BGSraTSlM0UNvD-72" value="N" style="text;html=1;align=center;verticalAlign=middle;resizable=0;points=[];autosize=1;" vertex="1" parent="1">
          <mxGeometry x="740" y="560" width="20" height="20" as="geometry" />
        </mxCell>
        <mxCell id="KJZ9F4BGSraTSlM0UNvD-78" style="edgeStyle=orthogonalEdgeStyle;rounded=0;orthogonalLoop=1;jettySize=auto;html=1;exitX=0;exitY=0.5;exitDx=0;exitDy=0;entryX=0.75;entryY=1;entryDx=0;entryDy=0;" edge="1" parent="1" source="KJZ9F4BGSraTSlM0UNvD-77" target="KJZ9F4BGSraTSlM0UNvD-39">
          <mxGeometry relative="1" as="geometry" />
        </mxCell>
        <mxCell id="KJZ9F4BGSraTSlM0UNvD-77" value="comment" style="rhombus;whiteSpace=wrap;html=1;" vertex="1" parent="1">
          <mxGeometry x="280" y="520" width="70" height="77" as="geometry" />
        </mxCell>
        <mxCell id="KJZ9F4BGSraTSlM0UNvD-79" value="1" style="text;html=1;align=center;verticalAlign=middle;resizable=0;points=[];autosize=1;" vertex="1" parent="1">
          <mxGeometry x="540" y="590" width="20" height="20" as="geometry" />
        </mxCell>
        <mxCell id="KJZ9F4BGSraTSlM0UNvD-80" value="N" style="text;html=1;align=center;verticalAlign=middle;resizable=0;points=[];autosize=1;" vertex="1" parent="1">
          <mxGeometry x="130" y="425" width="20" height="20" as="geometry" />
        </mxCell>
        <mxCell id="KJZ9F4BGSraTSlM0UNvD-83" style="edgeStyle=orthogonalEdgeStyle;rounded=0;orthogonalLoop=1;jettySize=auto;html=1;exitX=0;exitY=0.5;exitDx=0;exitDy=0;entryX=1;entryY=0.5;entryDx=0;entryDy=0;" edge="1" parent="1" source="KJZ9F4BGSraTSlM0UNvD-82" target="KJZ9F4BGSraTSlM0UNvD-52">
          <mxGeometry relative="1" as="geometry">
            <Array as="points">
              <mxPoint x="330" y="750" />
              <mxPoint x="160" y="750" />
            </Array>
          </mxGeometry>
        </mxCell>
        <mxCell id="KJZ9F4BGSraTSlM0UNvD-82" value="upvote" style="rhombus;whiteSpace=wrap;html=1;" vertex="1" parent="1">
          <mxGeometry x="330" y="715" width="50" height="50" as="geometry" />
        </mxCell>
        <mxCell id="KJZ9F4BGSraTSlM0UNvD-84" value="N" style="text;html=1;align=center;verticalAlign=middle;resizable=0;points=[];autosize=1;" vertex="1" parent="1">
          <mxGeometry x="525" y="650" width="20" height="20" as="geometry" />
        </mxCell>
        <mxCell id="KJZ9F4BGSraTSlM0UNvD-86" value="N" style="text;html=1;align=center;verticalAlign=middle;resizable=0;points=[];autosize=1;" vertex="1" parent="1">
          <mxGeometry x="160" y="750" width="20" height="20" as="geometry" />
        </mxCell>
        <mxCell id="KJZ9F4BGSraTSlM0UNvD-90" style="edgeStyle=orthogonalEdgeStyle;rounded=0;orthogonalLoop=1;jettySize=auto;html=1;exitX=0;exitY=0.5;exitDx=0;exitDy=0;entryX=1;entryY=0.25;entryDx=0;entryDy=0;" edge="1" parent="1" source="KJZ9F4BGSraTSlM0UNvD-88" target="KJZ9F4BGSraTSlM0UNvD-39">
          <mxGeometry relative="1" as="geometry" />
        </mxCell>
        <mxCell id="KJZ9F4BGSraTSlM0UNvD-88" value="have" style="rhombus;whiteSpace=wrap;html=1;" vertex="1" parent="1">
          <mxGeometry x="435" y="350" width="50" height="50" as="geometry" />
        </mxCell>
        <mxCell id="KJZ9F4BGSraTSlM0UNvD-89" value="1" style="text;html=1;align=center;verticalAlign=middle;resizable=0;points=[];autosize=1;" vertex="1" parent="1">
          <mxGeometry x="615" y="380" width="20" height="20" as="geometry" />
        </mxCell>
        <mxCell id="KJZ9F4BGSraTSlM0UNvD-91" value="N" style="text;html=1;align=center;verticalAlign=middle;resizable=0;points=[];autosize=1;" vertex="1" parent="1">
          <mxGeometry x="160" y="360" width="20" height="20" as="geometry" />
        </mxCell>
        <mxCell id="KJZ9F4BGSraTSlM0UNvD-96" style="edgeStyle=orthogonalEdgeStyle;rounded=0;orthogonalLoop=1;jettySize=auto;html=1;exitX=0;exitY=0.5;exitDx=0;exitDy=0;entryX=1;entryY=1;entryDx=0;entryDy=0;" edge="1" parent="1" source="KJZ9F4BGSraTSlM0UNvD-94" target="KJZ9F4BGSraTSlM0UNvD-15">
          <mxGeometry relative="1" as="geometry" />
        </mxCell>
        <mxCell id="KJZ9F4BGSraTSlM0UNvD-94" value="have" style="rhombus;whiteSpace=wrap;html=1;" vertex="1" parent="1">
          <mxGeometry x="630" y="240" width="40" height="40" as="geometry" />
        </mxCell>
        <mxCell id="KJZ9F4BGSraTSlM0UNvD-97" value="N" style="text;html=1;align=center;verticalAlign=middle;resizable=0;points=[];autosize=1;" vertex="1" parent="1">
          <mxGeometry x="665" y="350" width="20" height="20" as="geometry" />
        </mxCell>
        <mxCell id="KJZ9F4BGSraTSlM0UNvD-98" value="1" style="text;html=1;align=center;verticalAlign=middle;resizable=0;points=[];autosize=1;" vertex="1" parent="1">
          <mxGeometry x="470" y="230" width="20" height="20" as="geometry" />
        </mxCell>
        <mxCell id="KJZ9F4BGSraTSlM0UNvD-100" value="have" style="rhombus;whiteSpace=wrap;html=1;" vertex="1" parent="1">
          <mxGeometry x="60" y="540" width="50" height="50" as="geometry" />
        </mxCell>
        <mxCell id="KJZ9F4BGSraTSlM0UNvD-102" value="N" style="text;html=1;align=center;verticalAlign=middle;resizable=0;points=[];autosize=1;" vertex="1" parent="1">
          <mxGeometry x="110" y="680" width="20" height="20" as="geometry" />
        </mxCell>
      </root>
    </mxGraphModel>
  </diagram>
</mxfile>
